name C:\Users\antoi\Documents\MyRepositories\upper-imu-dc\Results\main_tracking\Case_81\kinematics.mot
datacolumns 10
datarows 42
range 3.45000000 3.86000000
endheader 
time	clav_prot	clav_elev	scapula_abduction	scapula_elevation	scapula_upward_rot	scapula_winging	plane_elv	shoulder_elv	axial_rot	
          3.45000000	        -59.99995896	        -27.42268465	        -41.49696241	        -29.99947958	         52.44469780	          5.83536632	         65.90849402	        109.99996621	        -23.33473354	
          3.46000000	        -59.99995766	        -27.42486033	        -41.52065705	        -29.99979882	         52.41275423	          5.83891774	         65.96975301	        109.99995727	        -23.26111210	
          3.47000000	        -59.99995526	        -27.42695455	        -41.54594174	        -29.99995602	         52.37864631	          5.84241462	         66.03364811	        109.99995786	        -23.18763584	
          3.48000000	        -59.99995535	        -27.42903638	        -41.57298895	        -29.99999439	         52.34215206	          5.84595005	         66.09971885	        109.99995951	        -23.11440688	
          3.49000000	        -59.99995665	        -27.43115780	        -41.60194675	        -29.99994436	         52.30307195	          5.84959788	         66.16751384	        109.99995620	        -23.04154470	
          3.50000000	        -59.99994966	        -27.43333033	        -41.63294058	        -29.99980483	         52.26121819	          5.85338494	         66.23662617	        109.99996066	        -22.96918293	
          3.51000000	        -59.99992159	        -27.43555809	        -41.66604622	        -29.99957119	         52.21646343	          5.85732952	         66.30665708	        109.99997400	        -22.89744438	
          3.52000000	        -59.99986755	        -27.43785682	        -41.70128533	        -29.99925193	         52.16876949	          5.86145749	         66.37720617	        109.99996614	        -22.82644116	
          3.53000000	        -59.99980106	        -27.44025553	        -41.73863274	        -29.99887087	         52.11819805	          5.86579658	         66.44788344	        109.99986782	        -22.75627211	
          3.54000000	        -59.99974630	        -27.44278875	        -41.77802971	        -29.99845948	         52.06487697	          5.87037261	         66.51833400	        109.99959860	        -22.68700929	
          3.55000000	        -59.99972468	        -27.44549129	        -41.81938993	        -29.99805083	         52.00896629	          5.87521300	         66.58825296	        109.99909459	        -22.61869036	
          3.56000000	        -59.99974831	        -27.44839688	        -41.86259807	        -29.99767779	         51.95064763	          5.88034985	         66.65738812	        109.99831420	        -22.55132013	
          3.57000000	        -59.99981693	        -27.45153758	        -41.90750610	        -29.99737258	         51.89012324	          5.88582141	         66.72553707	        109.99723310	        -22.48487998	
          3.58000000	        -59.99991184	        -27.45493925	        -41.95393711	        -29.99716217	         51.82759887	          5.89167085	         66.79255242	        109.99584882	        -22.41933694	
          3.59000000	        -59.99998918	        -27.45862120	        -42.00167890	        -29.99706762	         51.76327972	          5.89795078	         66.85833437	        109.99417435	        -22.35465520	
          3.60000000	        -59.99995285	        -27.46259280	        -42.05046841	        -29.99709895	         51.69733952	          5.90473886	         66.92281953	        109.99225721	        -22.29080354	
          3.61000000	        -59.99961096	        -27.46685331	        -42.09995767	        -29.99725159	         51.62988352	          5.91216977	         66.98595254	        109.99020949	        -22.22774772	
          3.62000000	        -59.99871197	        -27.47138904	        -42.14975049	        -29.99750629	         51.56096763	          5.92040514	         67.04771270	        109.98816764	        -22.16547586	
          3.63000000	        -59.99698080	        -27.47617936	        -42.19944198	        -29.99783597	         51.49061432	          5.92961516	         67.10813578	        109.98625623	        -22.10401102	
          3.64000000	        -59.99412252	        -27.48120304	        -42.24863024	        -29.99821032	         51.41880414	          5.93998443	         67.16731582	        109.98458425	        -22.04340762	
          3.65000000	        -59.98982426	        -27.48644179	        -42.29692297	        -29.99859830	         51.34547080	          5.95171532	         67.22540681	        109.98324176	        -21.98374301	
          3.66000000	        -59.98375814	        -27.49188356	        -42.34394360	        -29.99897062	         51.27049860	          5.96503017	         67.28262481	        109.98229697	        -21.92510265	
          3.67000000	        -59.97558422	        -27.49752575	        -42.38933655	        -29.99930221	         51.19372096	          5.98017344	         67.33924980	        109.98179496	        -21.86756154	
          3.68000000	        -59.96495287	        -27.50337760	        -42.43277026	        -29.99957406	         51.11492104	          5.99741302	         67.39562625	        109.98175763	        -21.81116533	
          3.69000000	        -59.95150777	        -27.50946181	        -42.47393916	        -29.99977458	         51.03383476	          6.01704001	         67.45216404	        109.98218341	        -21.75590628	
          3.70000000	        -59.93489115	        -27.51581565	        -42.51256659	        -29.99990093	         50.95015664	          6.03936622	         67.50933938	        109.98304531	        -21.70169902	
          3.71000000	        -59.91474267	        -27.52249419	        -42.54840225	        -29.99996136	         50.86354137	          6.06472902	         67.56768619	        109.98429611	        -21.64835845	
          3.72000000	        -59.89069968	        -27.52956900	        -42.58122168	        -29.99997414	         50.77360446	          6.09348931	         67.62778996	        109.98587465	        -21.59558930	
          3.73000000	        -59.86241358	        -27.53711754	        -42.61083869	        -29.99996038	         50.67993561	          6.12600543	         67.69029706	        109.98769699	        -21.54301838	
          3.74000000	        -59.82954363	        -27.54521605	        -42.63710782	        -29.99993736	         50.58208263	          6.16262871	         67.75591835	        109.98967292	        -21.49016521	
          3.75000000	        -59.79177302	        -27.55393248	        -42.65993628	        -29.99991402	         50.47956495	          6.20368220	         67.82544049	        109.99169411	        -21.43642632	
          3.76000000	        -59.74879908	        -27.56333277	        -42.67927145	        -29.99989531	         50.37187231	          6.24947578	         67.89969726	        109.99365169	        -21.38109602	
          3.77000000	        -59.70032252	        -27.57348786	        -42.69508439	        -29.99988709	         50.25846673	          6.30032284	         67.97953659	        109.99545247	        -21.32339393	
          3.78000000	        -59.64606236	        -27.58447624	        -42.70737240	        -29.99989986	         50.13880771	          6.35653211	         68.06581521	        109.99699989	        -21.26245361	
          3.79000000	        -59.58578363	        -27.59636775	        -42.71625379	        -29.99993282	         50.01227480	          6.41836891	         68.15948371	        109.99823851	        -21.19733187	
          3.80000000	        -59.51937533	        -27.60920477	        -42.72207647	        -29.99996189	         49.87816813	          6.48597567	         68.26167950	        109.99912762	        -21.12709053	
          3.81000000	        -59.44665004	        -27.62305767	        -42.72508801	        -29.99997848	         49.73577719	          6.55958455	         68.37340948	        109.99968079	        -21.05070938	
          3.82000000	        -59.36737574	        -27.63801686	        -42.72545582	        -29.99998606	         49.58441310	          6.63948332	         68.49556642	        109.99993451	        -20.96713423	
          3.83000000	        -59.28131455	        -27.65416395	        -42.72337995	        -29.99997426	         49.42332688	          6.72595239	         68.62904237	        109.99998963	        -20.87529231	
          3.84000000	        -59.18824013	        -27.67156814	        -42.71909036	        -29.99991830	         49.25174597	          6.81924676	         68.77472470	        109.99998086	        -20.77411049	
          3.85000000	        -59.08797399	        -27.69031226	        -42.71279687	        -29.99980867	         49.06901379	          6.91960029	         68.93342400	        109.99996835	        -20.66255986	
          3.86000000	        -58.98037599	        -27.71050018	        -42.70469180	        -29.99965543	         48.87456862	          7.02724262	         69.10586737	        109.99995362	        -20.53967494	
